<?xml version="1.0" encoding="utf-8"?>
<!-- Generator: Adobe Illustrator 22.1.0, SVG Export Plug-In . SVG Version: 6.00 Build 0)  -->
<svg version="1.0" id="Capa_1" xmlns="http://www.w3.org/2000/svg" xmlns:xlink="http://www.w3.org/1999/xlink" x="0px" y="0px"
	 viewBox="0 0 181 158" style="enable-background:new 0 0 181 158;" xml:space="preserve">
<style type="text/css">
	.st0{fill:#231F20;stroke:#333333;stroke-miterlimit:10;}
</style>
<path class="st0" d="M97.4,18.4v14.4c20.3,3,36.3,19,39.4,39.3h-11.1h-12.9H68.3c3-9.5,11.8-16.3,22.2-16.3c6.3,0,12,2.5,16.2,6.6
	h15.5c-6-11.4-17.9-19.2-31.7-19.2c-17.4,0-31.9,12.4-35.1,28.9h-5.2h-5.9c3-19.9,18.6-35.8,38.4-39.1V18.5
	C52.6,22.4,29.5,48,29.5,79c0,31,23.2,56.6,53.1,60.5v-14.4c-19.9-3.4-35.5-19.3-38.4-39.4h5.9v0h14.6c0,0,0,0,0,0h48
	c-2.9,9.6-11.8,16.5-22.3,16.5c-6.5,0-12.3-2.7-16.5-6.9H58.7c5.9,11.6,17.9,19.5,31.8,19.5c17.5,0,32-12.5,35.1-29.1h5.2h5.9
	c-2.9,20.4-19.1,36.5-39.4,39.5v14.4c30.5-3.4,54.1-29.2,54.1-60.6C151.5,47.6,127.8,21.8,97.4,18.4z"/>
</svg>
