<?xml version="1.0" encoding="utf-8"?>
<!-- Generator: Adobe Illustrator 22.1.0, SVG Export Plug-In . SVG Version: 6.00 Build 0)  -->
<svg version="1.0" id="Capa_1" xmlns="http://www.w3.org/2000/svg" xmlns:xlink="http://www.w3.org/1999/xlink" x="0px" y="0px"
	 viewBox="0 0 500 158" style="enable-background:new 0 0 500 158;" xml:space="preserve">
<style type="text/css">
	.st0{fill:#333333;}
</style>
<path class="st0" d="M396.6,88.3c19.2,0,37.9-6.6,52.8-18.6H310.6c-0.6-3.7-1.5-7.3-2.7-10.8h125.2c19.2,0,37.8-6.6,52.8-18.6H297.4
	c-9.9-12-24.2-20.3-40.5-22.1v14.5c20.3,3,36.5,19.1,39.5,39.4h-11.2h-13h-44.6c3-9.5,11.8-16.4,22.3-16.4c6.3,0,12.1,2.5,16.3,6.7
	h15.5c-6-11.4-18-19.3-31.8-19.3c-17.5,0-32,12.5-35.3,29h-5.2h-6c3-20,18.6-35.9,38.5-39.3V18.3c-15.9,2-29.8,10.2-39.4,22H14.1
	c15,12.1,33.6,18.6,52.8,18.6h125.3c-1.2,3.5-2.1,7.1-2.7,10.8H50.6c15,12.1,33.6,18.6,52.8,18.6h86.1c0.6,3.7,1.5,7.3,2.7,10.8
	h-105c15,12.1,33.6,18.6,52.8,18.6h62.7c9.7,11.8,23.6,19.9,39.4,22v-14.5c-19.9-3.4-35.6-19.4-38.6-39.5h6v0h14.6c0,0,0,0,0,0h48.2
	c-2.9,9.6-11.8,16.6-22.3,16.6c-6.5,0-12.4-2.7-16.6-7H218c6,11.6,18,19.6,32,19.6c17.5,0,32.1-12.6,35.3-29.2h5.2h6
	c-3,20.4-19.1,36.6-39.6,39.7v14.5c16.3-1.8,30.7-10.1,40.5-22.1H360c19.2,0,37.9-6.6,52.8-18.6h-105c1.2-3.5,2.1-7.1,2.7-10.8
	H396.6z"/>
</svg>
